<?xml version="1.0" encoding="UTF-8"?>
<svg xmlns="http://www.w3.org/2000/svg" xmlns:xlink="http://www.w3.org/1999/xlink" width="500pt" height="500pt" viewBox="0 0 500 500" version="1.1">
<g id="surface18785115">
<path style=" stroke:none;fill-rule:nonzero;fill:rgb(0%,0%,0%);fill-opacity:1;" d="M 333.75 0 C 305.390625 1.914062 275.039062 18.789062 256.25 41.5625 C 239.804688 61.601562 226.015625 91.015625 231.25 121.5625 C 226.5625 120.117188 222.304688 119.960938 217.1875 118.125 C 203.242188 113.164062 187.304688 107.8125 167.5 107.8125 C 128.164062 107.8125 87.890625 131.210938 62.5 170.3125 C 25.546875 227.109375 32.96875 327.070312 89.0625 412.5 C 98.945312 427.5 110.46875 443.867188 124.6875 456.875 C 138.90625 469.882812 156.09375 479.804688 176.25 480 C 193.476562 480.195312 205.46875 474.453125 216.25 469.6875 C 227.03125 464.921875 237.070312 460.703125 255.9375 460.625 C 256.054688 460.625 256.132812 460.625 256.25 460.625 C 275.039062 460.46875 284.765625 464.609375 295.3125 469.375 C 305.859375 474.140625 317.734375 480.15625 335 480 C 355.546875 479.84375 373.007812 468.59375 387.5 454.6875 C 401.992188 440.78125 413.90625 423.710938 423.75 408.75 C 437.851562 387.265625 443.515625 375.546875 454.375 351.5625 C 455.507812 349.0625 455.546875 346.171875 454.453125 343.632812 C 453.398438 341.09375 451.328125 339.101562 448.75 338.125 C 413.203125 324.6875 392.929688 293.242188 390 260 C 387.070312 226.757812 401.132812 192.539062 436.5625 173.125 C 439.179688 171.71875 441.015625 169.257812 441.640625 166.367188 C 442.226562 163.476562 441.523438 160.429688 439.6875 158.125 C 414.257812 126.523438 378.476562 107.8125 343.4375 107.8125 C 321.09375 107.8125 304.6875 113.085938 291.25 118.125 C 289.023438 118.984375 287.382812 118.90625 285.3125 119.6875 C 298.945312 112.5 310.976562 102.539062 320 90.9375 C 336.40625 69.882812 349.0625 39.921875 344.375 8.4375 C 343.59375 3.28125 338.945312 -0.390625 333.75 0 Z M 323.125 23.75 C 322.460938 43.945312 315.546875 63.710938 304.0625 78.4375 C 292.03125 93.90625 271.796875 104.609375 252.1875 107.8125 C 252.539062 88.398438 260.195312 68.28125 271.875 54.0625 C 284.140625 39.21875 304.453125 28.515625 323.125 23.75 Z M 167.5 127.8125 C 183.632812 127.8125 196.5625 131.992188 210.3125 136.875 C 224.0625 141.757812 238.554688 147.5 255.625 147.5 C 272.304688 147.5 285.507812 141.71875 298.4375 136.875 C 311.367188 132.03125 324.257812 127.8125 343.4375 127.8125 C 368.476562 127.8125 395.546875 140.820312 416.875 163.4375 C 382.734375 187.539062 366.757812 225.117188 370 261.5625 C 373.242188 298.398438 395.429688 333.359375 431.875 351.5625 C 423.984375 368.75 418.789062 380.117188 407.1875 397.8125 C 397.617188 412.382812 386.25 428.320312 373.75 440.3125 C 361.25 452.304688 348.007812 459.882812 334.6875 460 C 321.835938 460.117188 314.53125 456.289062 303.4375 451.25 C 292.34375 446.210938 278.007812 440.429688 255.9375 440.625 C 233.90625 440.742188 219.375 446.289062 208.125 451.25 C 196.875 456.210938 189.492188 460.117188 176.5625 460 C 162.890625 459.882812 150.195312 453.242188 138.125 442.1875 C 126.054688 431.132812 115.15625 416.054688 105.625 401.5625 C 53.125 321.5625 48.90625 227.578125 79.0625 181.25 C 101.171875 147.226562 136.289062 127.8125 167.5 127.8125 Z M 167.5 127.8125 "/>
</g>
</svg>
